<svg id="Component_12_2" data-name="Component 12 – 2" xmlns="http://www.w3.org/2000/svg" width="390" height="924" viewBox="0 0 390 924">
  <rect id="Rectangle_2" data-name="Rectangle 2" width="390" height="924" rx="20" fill="#fff"/>
  <rect id="Rectangle_3" data-name="Rectangle 3" width="185" height="50" rx="25" transform="translate(52 168)" fill="#f7b928"/>
  <text id="Manager" transform="translate(108 201)" fill="#fff" font-size="22" font-family="SegoeUI, Segoe UI"><tspan x="0" y="0">Manager</tspan></text>
  <text id="Users" transform="translate(107 273)" font-size="22" font-family="SegoeUI, Segoe UI"><tspan x="0" y="0">Users</tspan></text>
  <text id="LOGO" transform="translate(52 111)" font-size="28" font-family="SegoeUI-Bold, Segoe UI" font-weight="700"><tspan x="0" y="0">LOGO</tspan></text>
  <text id="Requests" transform="translate(107 344)" font-size="22" font-family="SegoeUI, Segoe UI"><tspan x="0" y="0">Requests</tspan></text>
  <text id="Subscriptions" transform="translate(107 415)" font-size="22" font-family="SegoeUI, Segoe UI"><tspan x="0" y="0">Subscriptions</tspan></text>
  <text id="Logout" transform="translate(107 486.158)" font-size="22" font-family="SegoeUI, Segoe UI"><tspan x="0" y="0">Logout</tspan></text>
  <g id="Group_893" data-name="Group 893" transform="translate(3 3)">
    <path id="Path_470" data-name="Path 470" d="M4.5,9.518,12.881,3l8.381,6.518V19.762A1.862,1.862,0,0,1,19.4,21.624H6.362A1.862,1.862,0,0,1,4.5,19.762Z" transform="translate(73.5 177.277)" fill="none" stroke="#fff" stroke-linecap="round" stroke-linejoin="round" stroke-width="2"/>
    <path id="Path_471" data-name="Path 471" d="M13.5,27.312V18h5.587v9.312" transform="translate(70.087 171.59)" fill="none" stroke="#fff" stroke-linecap="round" stroke-linejoin="round" stroke-width="2"/>
  </g>
  <path id="Icon_awesome-tasks" data-name="Icon awesome-tasks" d="M4.57,2.363a.393.393,0,0,0-.557,0L1.929,4.436l-.743-.724a.393.393,0,0,0-.557,0l-.514.515a.393.393,0,0,0,0,.557L1.674,6.335a.418.418,0,0,0,.577,0l.51-.511L5.124,3.46a.4.4,0,0,0,0-.557Zm0,5.211a.393.393,0,0,0-.557,0L1.929,9.661l-.743-.723a.393.393,0,0,0-.557,0l-.514.514a.393.393,0,0,0,0,.557L1.67,11.563a.418.418,0,0,0,.576,0l.514-.514L5.123,8.685a.393.393,0,0,0,0-.553ZM2.1,13.249a1.572,1.572,0,1,0,0,3.143,1.571,1.571,0,1,0,0-3.143Zm14.143.524H6.809a.524.524,0,0,0-.524.524v1.048a.524.524,0,0,0,.524.524h9.428a.524.524,0,0,0,.524-.524V14.3A.524.524,0,0,0,16.238,13.772Zm0-10.476H6.809a.524.524,0,0,0-.524.524V4.868a.524.524,0,0,0,.524.524h9.428a.524.524,0,0,0,.524-.524V3.82A.524.524,0,0,0,16.238,3.3Zm0,5.238H6.809a.524.524,0,0,0-.524.524v1.048a.524.524,0,0,0,.524.524h9.428a.524.524,0,0,0,.524-.524V9.058A.524.524,0,0,0,16.238,8.534Z" transform="translate(80 327.153)"/>
  <path id="Icon_ionic-md-settings" data-name="Icon ionic-md-settings" d="M16.978,11.88a4.835,4.835,0,0,0,.039-.773c0-.271-.039-.5-.039-.773l1.66-1.276a.355.355,0,0,0,.079-.5L17.136,5.888a.385.385,0,0,0-.475-.155l-1.977.773a5.755,5.755,0,0,0-1.344-.773l-.277-2.049a.424.424,0,0,0-.4-.309H9.5a.424.424,0,0,0-.4.309L8.793,5.733a6.7,6.7,0,0,0-1.344.773L5.472,5.733A.37.37,0,0,0,5,5.888L3.416,8.555a.467.467,0,0,0,.079.5l1.7,1.276c0,.271-.039.5-.039.773s.039.5.039.773l-1.66,1.276a.355.355,0,0,0-.079.5l1.582,2.667a.385.385,0,0,0,.475.155l1.977-.773a5.754,5.754,0,0,0,1.344.773l.316,2.049a.383.383,0,0,0,.4.309h3.163a.424.424,0,0,0,.4-.309l.317-2.049a6.692,6.692,0,0,0,1.344-.773l1.977.773a.37.37,0,0,0,.475-.155L18.8,13.658a.466.466,0,0,0-.079-.5Zm-5.891,1.933a2.707,2.707,0,1,1,2.768-2.706A2.72,2.72,0,0,1,11.087,13.812Z" transform="translate(77.503 467.023)" fill="none" stroke="#000" stroke-width="1"/>
  <g id="bar-chart" transform="translate(80.779 256.004)">
    <g id="Group_895" data-name="Group 895" transform="translate(0 10.006)">
      <g id="Group_894" data-name="Group 894">
        <path id="Path_978" data-name="Path 978" d="M2.349,293.776A2.352,2.352,0,0,0,0,296.125v2.735a2.349,2.349,0,1,0,4.7,0v-2.735A2.352,2.352,0,0,0,2.349,293.776Zm.986,5.084a.986.986,0,1,1-1.973,0v-2.735a.986.986,0,0,1,1.973,0v2.735Z" transform="translate(0 -293.776)"/>
      </g>
    </g>
    <g id="Group_897" data-name="Group 897" transform="translate(6.371)">
      <g id="Group_896" data-name="Group 896">
        <path id="Path_979" data-name="Path 979" d="M189.386,0a2.352,2.352,0,0,0-2.349,2.349V15.09a2.349,2.349,0,0,0,4.7,0V2.349A2.352,2.352,0,0,0,189.386,0Zm.986,15.09a.986.986,0,0,1-1.973,0V2.349a.986.986,0,0,1,1.973,0Z" transform="translate(-187.037)"/>
      </g>
    </g>
    <g id="Group_899" data-name="Group 899" transform="translate(12.741 5.003)">
      <g id="Group_898" data-name="Group 898">
        <path id="Path_980" data-name="Path 980" d="M376.424,146.888a2.352,2.352,0,0,0-2.349,2.349v7.738a2.349,2.349,0,1,0,4.7,0v-7.738A2.352,2.352,0,0,0,376.424,146.888Zm.987,10.087a.986.986,0,1,1-1.973,0v-7.738a.986.986,0,1,1,1.973,0Z" transform="translate(-374.075 -146.888)"/>
      </g>
    </g>
  </g>
  <g id="add-friend" transform="translate(30.664 397.55)">
    <path id="Path_981" data-name="Path 981" d="M60.745,11.053a2.62,2.62,0,0,0-1.936-1.5,5.839,5.839,0,0,0,.555-7.975,4.168,4.168,0,0,0-6.538,0,5.844,5.844,0,0,0,.51,7.936h-.379a2.625,2.625,0,0,0-2.622,2.622v5.969H61.324a3.552,3.552,0,1,0-.579-7.056ZM56.1,1.065A3.374,3.374,0,0,1,58.938,2.8c-1.1,1.88-3.969,2.628-6.336,1.985A3.827,3.827,0,0,1,56.1,1.065ZM52.613,5.888a7.044,7.044,0,0,0,6.818-1.943c.762,2.716-.921,5.574-3.335,5.574A3.808,3.808,0,0,1,52.613,5.888ZM51.4,17.046V12.141a1.56,1.56,0,0,1,1.558-1.558h5.4a1.571,1.571,0,0,1,1.364.806,3.55,3.55,0,0,0-.931,5.658Zm9.925,0a2.488,2.488,0,1,1,2.488-2.488A2.491,2.491,0,0,1,61.324,17.046Z"/>
    <path id="Path_982" data-name="Path 982" d="M327.956,376.552h-1.064v.676h-.676v1.064h.676v.676h1.064v-.676h.676v-1.064h-.676Z" transform="translate(-266.1 -363.202)"/>
  </g>
</svg>
